# xmcd CD database file
#
# Track frame offsets:
#	150
#	53773
#	98622
#	152701
#	208637
#
# Disc length: 3480 seconds
#
# Revision: 0
# Processed by: cddbd v1.5.2PL0 Copyright (c) Steve Scherf et al.
# Submitted via: CDex 1.70beta2
#
DISCID=360d9605
DTITLE=Yoham - Project - Sky Below
DYEAR=2014
DGENRE=New Age
TTITLE0=Playng with Angels
TTITLE1=Purple Flamingo
TTITLE2=Wings of Pure Light
TTITLE3=A Dark Night's Tale
TTITLE4=Sky Below
EXTD=YEAR: 2014
EXTT0=
EXTT1=
EXTT2=
EXTT3=
EXTT4=
PLAYORDER=
